<?xml version="1.0" encoding="UTF-8" standalone="no"?>
<!-- Generator: Adobe Illustrator 21.1.0, SVG Export Plug-In . SVG Version: 6.00 Build 0)  -->

<svg
   xmlns:dc="http://purl.org/dc/elements/1.1/"
   xmlns:cc="http://creativecommons.org/ns#"
   xmlns:rdf="http://www.w3.org/1999/02/22-rdf-syntax-ns#"
   xmlns:svg="http://www.w3.org/2000/svg"
   xmlns="http://www.w3.org/2000/svg"
   xmlns:sodipodi="http://sodipodi.sourceforge.net/DTD/sodipodi-0.dtd"
   xmlns:inkscape="http://www.inkscape.org/namespaces/inkscape"
   version="1.1"
   id="Layer_1"
   x="0px"
   y="0px"
   viewBox="0 0 82.800006 82.800004"
   xml:space="preserve"
   sodipodi:docname="Abaete-Icone-Youtube.svg"
   width="82.800003"
   height="82.800003"
   inkscape:version="0.92.1 unknown"><metadata
     id="metadata76"><rdf:RDF><cc:Work
         rdf:about=""><dc:format>image/svg+xml</dc:format><dc:type
           rdf:resource="http://purl.org/dc/dcmitype/StillImage" /></cc:Work></rdf:RDF></metadata><defs
     id="defs74" /><sodipodi:namedview
     pagecolor="#ffffff"
     bordercolor="#666666"
     borderopacity="1"
     objecttolerance="10"
     gridtolerance="10"
     guidetolerance="10"
     inkscape:pageopacity="0"
     inkscape:pageshadow="2"
     inkscape:window-width="1366"
     inkscape:window-height="703"
     id="namedview72"
     showgrid="false"
     inkscape:zoom="2.4884114"
     inkscape:cx="40.75"
     inkscape:cy="42"
     inkscape:window-x="0"
     inkscape:window-y="0"
     inkscape:window-maximized="1"
     inkscape:current-layer="Layer_1" /><style
     type="text/css"
     id="style44">
	.st0{fill:#FEE700;}
	.st1{fill:#010101;}
</style><g
     id="Layer_1_1_"
     transform="translate(-48.699997,-58.299995)"><g
       id="g68"><g
         id="g48"><circle
           class="st0"
           cx="90.099998"
           cy="99.699997"
           r="41.400002"
           id="circle46"
           style="fill:#fee700" /></g><g
         id="g66"><g
           id="g56"><path
             class="st1"
             d="m 98.2,93.8 c 0.7,0 2,-0.4 3.2,-1.9 v 1.7 h 2.8 V 78.7 h -2.8 V 90 c -0.4,0.4 -1.1,1.1 -1.7,1.1 -0.6,0 -0.7,-0.3 -0.7,-0.9 V 78.9 h -2.8 v 12.4 c 0,1.3 0.5,2.5 2,2.5 z"
             id="path50"
             inkscape:connector-curvature="0"
             style="fill:#010101" /><path
             class="st1"
             d="m 85.8,89.9 c 0,2.6 1.3,3.9 4.1,3.9 2.2,0 3.9,-1.5 3.9,-3.9 v -7.2 c 0,-2.4 -1.7,-3.9 -3.9,-3.9 -2.4,0 -4.1,1.7 -4.1,3.9 z m 3,-7.1 c 0,-0.7 0.4,-1.5 1.1,-1.5 0.9,0 1.3,0.6 1.3,1.5 v 6.9 c 0,0.7 -0.4,1.5 -1.1,1.5 -0.7,0 -1.1,-0.6 -1.1,-1.5 v -6.9 z"
             id="path52"
             inkscape:connector-curvature="0"
             style="fill:#010101" /><polygon
             class="st1"
             points="82.4,85.4 86,73.5 82.8,73.5 80.8,81.5 78.7,73.5 75.6,73.5 79.3,85.4 79.3,93.6 82.4,93.6 "
             id="polygon54"
             style="fill:#010101" /></g><g
           id="g64"><path
             class="st1"
             d="M 107.9,96.9 H 75.2 c -3.5,0 -6.3,2.8 -6.3,6.3 v 16 c 0,3.5 2.8,6.3 6.3,6.3 h 32.5 c 3.5,0 6.3,-2.8 6.3,-6.3 v -16 c 0.2,-3.5 -2.8,-6.3 -6.1,-6.3 z m -28.2,24 h -3 v -16.3 h -3 v -2.8 h 9.1 v 2.8 h -3 v 16.3 z m 10.4,0 h -2.6 v -1.5 c -0.6,0.6 -0.9,0.9 -1.5,1.3 -1.5,0.7 -3.3,0.7 -3.3,-2 v -11.9 h 2.6 v 10.8 c 0,0.6 0.2,0.9 0.7,0.9 0.5,0 1.3,-0.7 1.5,-1.1 v -10.8 h 2.6 z m 10.2,-3 c 0,1.7 -0.7,3.2 -2.4,3.2 -0.9,0 -1.7,-0.4 -2.4,-1.3 v 1.1 h -2.6 v -19.1 h 2.6 v 6.1 c 0.6,-0.7 1.5,-1.3 2.4,-1.3 1.9,0 2.6,1.7 2.6,3.5 v 7.8 z m 9.6,-3.7 h -5 v 2.6 c 0,1.1 0,2 1.1,2 1.1,0 1.1,-0.7 1.1,-2 v -0.9 h 2.8 v 1.1 c 0,2.8 -1.1,4.5 -3.9,4.5 -2.6,0 -3.7,-1.9 -3.7,-4.5 v -6.3 c 0,-2.4 1.7,-4.1 3.9,-4.1 2.6,0 3.7,1.7 3.7,4.1 z"
             id="path58"
             inkscape:connector-curvature="0"
             style="fill:#010101" /><path
             class="st1"
             d="m 106,108.8 c -0.9,0 -1.1,0.7 -1.1,1.7 v 1.5 h 2.4 v -1.5 c 0,-1 -0.2,-1.7 -1.3,-1.7 z"
             id="path60"
             inkscape:connector-curvature="0"
             style="fill:#010101" /><path
             class="st1"
             d="m 95.8,109 c -0.2,0.2 -0.4,0.2 -0.6,0.4 v 8.7 c 0.2,0.2 0.4,0.4 0.6,0.6 0.4,0.2 1.1,0.2 1.3,-0.2 0.2,-0.2 0.2,-0.6 0.2,-0.9 v -7.2 c 0,-0.6 -0.2,-0.9 -0.4,-1.1 0,-0.5 -0.5,-0.7 -1.1,-0.3 z"
             id="path62"
             inkscape:connector-curvature="0"
             style="fill:#010101" /></g></g></g></g></svg>