<?xml version="1.0" encoding="UTF-8" standalone="no"?>
<!-- Generator: Adobe Illustrator 21.1.0, SVG Export Plug-In . SVG Version: 6.00 Build 0)  -->

<svg
   xmlns:dc="http://purl.org/dc/elements/1.1/"
   xmlns:cc="http://creativecommons.org/ns#"
   xmlns:rdf="http://www.w3.org/1999/02/22-rdf-syntax-ns#"
   xmlns:svg="http://www.w3.org/2000/svg"
   xmlns="http://www.w3.org/2000/svg"
   xmlns:sodipodi="http://sodipodi.sourceforge.net/DTD/sodipodi-0.dtd"
   xmlns:inkscape="http://www.inkscape.org/namespaces/inkscape"
   version="1.1"
   id="Layer_1"
   x="0px"
   y="0px"
   viewBox="0 0 82.800006 82.800004"
   xml:space="preserve"
   sodipodi:docname="Abaete-Icone-Instagram.svg"
   width="82.800003"
   height="82.800003"
   inkscape:version="0.92.1 unknown"><metadata
     id="metadata42"><rdf:RDF><cc:Work
         rdf:about=""><dc:format>image/svg+xml</dc:format><dc:type
           rdf:resource="http://purl.org/dc/dcmitype/StillImage" /></cc:Work></rdf:RDF></metadata><defs
     id="defs40" /><sodipodi:namedview
     pagecolor="#ffffff"
     bordercolor="#666666"
     borderopacity="1"
     objecttolerance="10"
     gridtolerance="10"
     guidetolerance="10"
     inkscape:pageopacity="0"
     inkscape:pageshadow="2"
     inkscape:window-width="640"
     inkscape:window-height="480"
     id="namedview38"
     showgrid="false"
     inkscape:zoom="1.4511857"
     inkscape:cx="41.25"
     inkscape:cy="42"
     inkscape:window-x="0"
     inkscape:window-y="0"
     inkscape:window-maximized="0"
     inkscape:current-layer="Layer_1" /><style
     type="text/css"
     id="style20">
	.st0{fill:#FEE700;}
	.st1{fill:#010101;}
</style><g
     id="Layer_1_2_"
     transform="translate(-48.199997,-58.299995)"><g
       id="g34"><g
         id="g24"><circle
           class="st0"
           cx="89.599998"
           cy="99.699997"
           r="41.400002"
           id="circle22"
           style="fill:#fee700" /></g><g
         id="g32"><path
           class="st1"
           d="m 89.6,80.9 c 6.3,0 7.1,0 9.8,0.2 2.3,0.2 3.6,0.6 4.4,0.8 1.1,0.4 1.9,1 2.7,1.7 0.8,0.8 1.3,1.7 1.7,2.7 0.4,0.8 0.8,2.1 0.8,4.4 0.2,2.5 0.2,3.3 0.2,9.8 0,6.3 0,7.1 -0.2,9.8 -0.2,2.3 -0.6,3.6 -0.8,4.4 -0.4,1.1 -1,1.9 -1.7,2.7 -0.8,0.8 -1.7,1.3 -2.7,1.7 -0.8,0.4 -2.1,0.8 -4.4,0.8 -2.5,0.2 -3.3,0.2 -9.8,0.2 -6.3,0 -7.1,0 -9.8,-0.2 -2.3,-0.2 -3.6,-0.6 -4.4,-0.8 -1.1,-0.4 -1.9,-1 -2.7,-1.7 -0.8,-0.8 -1.3,-1.7 -1.7,-2.7 -0.4,-0.8 -0.8,-2.1 -0.8,-4.4 C 70,107.8 70,107 70,100.5 c 0,-6.3 0,-7.1 0.2,-9.8 0.2,-2.3 0.6,-3.6 0.8,-4.4 0.4,-1.1 1,-1.9 1.7,-2.7 0.8,-0.8 1.7,-1.3 2.7,-1.7 0.8,-0.4 2.1,-0.8 4.4,-0.8 2.7,-0.2 3.5,-0.2 9.8,-0.2 m 0,-4.4 c -6.5,0 -7.3,0 -10,0.2 -2.5,0.2 -4.2,0.6 -5.7,1.1 -1.5,0.6 -2.9,1.3 -4.2,2.7 -1.3,1.3 -2.1,2.7 -2.7,4.2 -0.6,1.5 -1,3.3 -1.1,5.7 -0.2,2.5 -0.2,3.4 -0.2,10 0,6.5 0,7.3 0.2,10 0.2,2.5 0.6,4.2 1.1,5.7 0.5,1.5 1.3,2.9 2.7,4.2 1.3,1.3 2.7,2.1 4.2,2.7 1.5,0.6 3.3,1 5.7,1.1 2.5,0.2 3.4,0.2 10,0.2 6.6,0 7.3,0 10,-0.2 2.5,-0.2 4.2,-0.6 5.7,-1.1 1.5,-0.6 2.9,-1.3 4.2,-2.7 1.3,-1.3 2.1,-2.7 2.7,-4.2 0.6,-1.5 1,-3.3 1.1,-5.7 0.2,-2.5 0.2,-3.4 0.2,-10 0,-6.5 0,-7.3 -0.2,-10 -0.2,-2.5 -0.6,-4.2 -1.1,-5.7 -0.6,-1.5 -1.3,-2.9 -2.7,-4.2 -1.3,-1.3 -2.7,-2.1 -4.2,-2.7 -1.5,-0.6 -3.3,-1 -5.7,-1.1 -2.7,-0.2 -3.5,-0.2 -10,-0.2"
           id="path26"
           inkscape:connector-curvature="0"
           style="fill:#010101" /><path
           class="st1"
           d="m 89.6,88.2 c -6.7,0 -12.3,5.6 -12.3,12.3 0,6.7 5.6,12.3 12.3,12.3 6.7,0 12.3,-5.6 12.3,-12.3 0,-6.7 -5.6,-12.3 -12.3,-12.3 m 0,20.3 c -4.4,0 -8,-3.6 -8,-8 0,-4.4 3.6,-8 8,-8 4.4,0 8,3.6 8,8 0,4.4 -3.6,8 -8,8"
           id="path28"
           inkscape:connector-curvature="0"
           style="fill:#010101" /><path
           class="st1"
           d="m 105.3,87.6 c 0,1.5 -1.3,2.9 -2.9,2.9 -1.6,0 -2.9,-1.3 -2.9,-2.9 0,-1.6 1.3,-2.9 2.9,-2.9 1.6,0.1 2.9,1.4 2.9,2.9"
           id="path30"
           inkscape:connector-curvature="0"
           style="fill:#010101" /></g></g></g></svg>