<?xml version="1.0" encoding="utf-8"?>
<!-- Generator: Adobe Illustrator 21.1.0, SVG Export Plug-In . SVG Version: 6.00 Build 0)  -->
<svg version="1.1" id="Layer_1" xmlns="http://www.w3.org/2000/svg" xmlns:xlink="http://www.w3.org/1999/xlink" x="0px" y="0px"
	 viewBox="0 0 178.9 198.2" style="enable-background:new 0 0 178.9 198.2;" xml:space="preserve">
<style type="text/css">
	.st0{fill:#FEE700;}
	.st1{fill:#010101;}
</style>
<g id="Layer_1_1_">
	<g>
		<g>
			<circle class="st0" cx="90.1" cy="99.7" r="41.4"/>
		</g>
		<g>
			<g>
				<path class="st1" d="M98.2,93.8c0.7,0,2-0.4,3.2-1.9v1.7h2.8V78.7h-2.8V90c-0.4,0.4-1.1,1.1-1.7,1.1S99,90.8,99,90.2V78.9h-2.8
					v12.4C96.2,92.6,96.7,93.8,98.2,93.8z"/>
				<path class="st1" d="M85.8,89.9c0,2.6,1.3,3.9,4.1,3.9c2.2,0,3.9-1.5,3.9-3.9v-7.2c0-2.4-1.7-3.9-3.9-3.9
					c-2.4,0-4.1,1.7-4.1,3.9V89.9z M88.8,82.8c0-0.7,0.4-1.5,1.1-1.5c0.9,0,1.3,0.6,1.3,1.5v6.9c0,0.7-0.4,1.5-1.1,1.5
					c-0.7,0-1.1-0.6-1.1-1.5v-6.9H88.8z"/>
				<polygon class="st1" points="79.3,93.6 82.4,93.6 82.4,85.4 86,73.5 82.8,73.5 80.8,81.5 78.7,73.5 75.6,73.5 79.3,85.4 				"/>
			</g>
			<g>
				<path class="st1" d="M107.9,96.9H75.2c-3.5,0-6.3,2.8-6.3,6.3v16c0,3.5,2.8,6.3,6.3,6.3h32.5c3.5,0,6.3-2.8,6.3-6.3v-16
					C114.2,99.7,111.2,96.9,107.9,96.9z M79.7,120.9h-3v-16.3h-3v-2.8h9.1v2.8h-3v16.3H79.7z M90.1,120.9h-2.6v-1.5
					c-0.6,0.6-0.9,0.9-1.5,1.3c-1.5,0.7-3.3,0.7-3.3-2v-11.9h2.6v10.8c0,0.6,0.2,0.9,0.7,0.9s1.3-0.7,1.5-1.1v-10.8h2.6V120.9z
					 M100.3,117.9c0,1.7-0.7,3.2-2.4,3.2c-0.9,0-1.7-0.4-2.4-1.3v1.1h-2.6v-19.1h2.6v6.1c0.6-0.7,1.5-1.3,2.4-1.3
					c1.9,0,2.6,1.7,2.6,3.5v7.8H100.3z M109.9,114.2h-5v2.6c0,1.1,0,2,1.1,2s1.1-0.7,1.1-2v-0.9h2.8v1.1c0,2.8-1.1,4.5-3.9,4.5
					c-2.6,0-3.7-1.9-3.7-4.5v-6.3c0-2.4,1.7-4.1,3.9-4.1c2.6,0,3.7,1.7,3.7,4.1V114.2z"/>
				<path class="st1" d="M106,108.8c-0.9,0-1.1,0.7-1.1,1.7v1.5h2.4v-1.5C107.3,109.5,107.1,108.8,106,108.8z"/>
				<path class="st1" d="M95.8,109c-0.2,0.2-0.4,0.2-0.6,0.4v8.7c0.2,0.2,0.4,0.4,0.6,0.6c0.4,0.2,1.1,0.2,1.3-0.2
					c0.2-0.2,0.2-0.6,0.2-0.9v-7.2c0-0.6-0.2-0.9-0.4-1.1C96.9,108.8,96.4,108.6,95.8,109z"/>
			</g>
		</g>
	</g>
</g>
</svg>
