<?xml version="1.0" encoding="utf-8"?>
<!-- Generator: Adobe Illustrator 21.1.0, SVG Export Plug-In . SVG Version: 6.00 Build 0)  -->
<svg version="1.1" id="Layer_1" xmlns="http://www.w3.org/2000/svg" xmlns:xlink="http://www.w3.org/1999/xlink" x="0px" y="0px"
	 viewBox="0 0 178.9 198.2" style="enable-background:new 0 0 178.9 198.2;" xml:space="preserve">
<style type="text/css">
	.st0{fill:#FEE700;}
	.st1{fill:#010101;}
</style>
<g id="Layer_1_3_">
	<g>
		<g>
			<path class="st0" d="M89.3,140.7c-22.9,0-41.4-18.5-41.4-41.4s18.5-41.4,41.4-41.4s41.4,18.5,41.4,41.4
				C130.9,122.1,112.2,140.7,89.3,140.7z"/>
		</g>
		<path class="st1" d="M83.7,120.8h9.2V97.9h6.4l0.7-7.7h-7.1c0,0,0-2.8,0-4.3c0-1.9,0.4-2.4,2.1-2.4c1.3,0,4.9,0,4.9,0v-7.9
			c0,0-5.2,0-6.4,0c-6.7,0-9.9,3-9.9,8.8c0,5.1,0,6.2,0,6.2h-4.7v7.7h4.7v22.5H83.7z"/>
	</g>
</g>
</svg>
