<?xml version="1.0" encoding="utf-8"?>
<!-- Generator: Adobe Illustrator 21.1.0, SVG Export Plug-In . SVG Version: 6.00 Build 0)  -->
<svg version="1.1" id="Layer_1" xmlns="http://www.w3.org/2000/svg" xmlns:xlink="http://www.w3.org/1999/xlink" x="0px" y="0px"
	 viewBox="0 0 178.9 198.2" style="enable-background:new 0 0 178.9 198.2;" xml:space="preserve">
<style type="text/css">
	.st0{fill:#FEE700;}
	.st1{fill:#010101;}
</style>
<g id="Layer_1_2_">
	<g>
		<g>
			<circle class="st0" cx="89.6" cy="99.7" r="41.4"/>
		</g>
		<g>
			<path class="st1" d="M89.6,80.9c6.3,0,7.1,0,9.8,0.2c2.3,0.2,3.6,0.6,4.4,0.8c1.1,0.4,1.9,1,2.7,1.7c0.8,0.8,1.3,1.7,1.7,2.7
				c0.4,0.8,0.8,2.1,0.8,4.4c0.2,2.5,0.2,3.3,0.2,9.8c0,6.3,0,7.1-0.2,9.8c-0.2,2.3-0.6,3.6-0.8,4.4c-0.4,1.1-1,1.9-1.7,2.7
				c-0.8,0.8-1.7,1.3-2.7,1.7c-0.8,0.4-2.1,0.8-4.4,0.8c-2.5,0.2-3.3,0.2-9.8,0.2c-6.3,0-7.1,0-9.8-0.2c-2.3-0.2-3.6-0.6-4.4-0.8
				c-1.1-0.4-1.9-1-2.7-1.7c-0.8-0.8-1.3-1.7-1.7-2.7c-0.4-0.8-0.8-2.1-0.8-4.4c-0.2-2.5-0.2-3.3-0.2-9.8c0-6.3,0-7.1,0.2-9.8
				c0.2-2.3,0.6-3.6,0.8-4.4c0.4-1.1,1-1.9,1.7-2.7c0.8-0.8,1.7-1.3,2.7-1.7c0.8-0.4,2.1-0.8,4.4-0.8C82.5,80.9,83.3,80.9,89.6,80.9
				 M89.6,76.5c-6.5,0-7.3,0-10,0.2c-2.5,0.2-4.2,0.6-5.7,1.1c-1.5,0.6-2.9,1.3-4.2,2.7c-1.3,1.3-2.1,2.7-2.7,4.2
				c-0.6,1.5-1,3.3-1.1,5.7c-0.2,2.5-0.2,3.4-0.2,10c0,6.5,0,7.3,0.2,10c0.2,2.5,0.6,4.2,1.1,5.7s1.3,2.9,2.7,4.2
				c1.3,1.3,2.7,2.1,4.2,2.7c1.5,0.6,3.3,1,5.7,1.1c2.5,0.2,3.4,0.2,10,0.2s7.3,0,10-0.2c2.5-0.2,4.2-0.6,5.7-1.1
				c1.5-0.6,2.9-1.3,4.2-2.7c1.3-1.3,2.1-2.7,2.7-4.2s1-3.3,1.1-5.7c0.2-2.5,0.2-3.4,0.2-10c0-6.5,0-7.3-0.2-10
				c-0.2-2.5-0.6-4.2-1.1-5.7c-0.6-1.5-1.3-2.9-2.7-4.2c-1.3-1.3-2.7-2.1-4.2-2.7c-1.5-0.6-3.3-1-5.7-1.1
				C96.9,76.5,96.1,76.5,89.6,76.5"/>
			<path class="st1" d="M89.6,88.2c-6.7,0-12.3,5.6-12.3,12.3c0,6.7,5.6,12.3,12.3,12.3c6.7,0,12.3-5.6,12.3-12.3
				C101.9,93.8,96.3,88.2,89.6,88.2 M89.6,108.5c-4.4,0-8-3.6-8-8s3.6-8,8-8s8,3.6,8,8S94,108.5,89.6,108.5"/>
			<path class="st1" d="M105.3,87.6c0,1.5-1.3,2.9-2.9,2.9s-2.9-1.3-2.9-2.9s1.3-2.9,2.9-2.9C104,84.8,105.3,86.1,105.3,87.6"/>
		</g>
	</g>
</g>
</svg>
