<?xml version="1.0" encoding="UTF-8" standalone="no"?>
<!-- Generator: Adobe Illustrator 21.1.0, SVG Export Plug-In . SVG Version: 6.00 Build 0)  -->

<svg
   xmlns:dc="http://purl.org/dc/elements/1.1/"
   xmlns:cc="http://creativecommons.org/ns#"
   xmlns:rdf="http://www.w3.org/1999/02/22-rdf-syntax-ns#"
   xmlns:svg="http://www.w3.org/2000/svg"
   xmlns="http://www.w3.org/2000/svg"
   xmlns:sodipodi="http://sodipodi.sourceforge.net/DTD/sodipodi-0.dtd"
   xmlns:inkscape="http://www.inkscape.org/namespaces/inkscape"
   version="1.1"
   id="Layer_1"
   x="0px"
   y="0px"
   viewBox="0 0 82.801593 82.800004"
   xml:space="preserve"
   sodipodi:docname="Abaete-Icone-Facebook.svg"
   width="82.80159"
   height="82.800003"
   inkscape:version="0.92.1 unknown"><metadata
     id="metadata18"><rdf:RDF><cc:Work
         rdf:about=""><dc:format>image/svg+xml</dc:format><dc:type
           rdf:resource="http://purl.org/dc/dcmitype/StillImage" /></cc:Work></rdf:RDF></metadata><defs
     id="defs16" /><sodipodi:namedview
     pagecolor="#ffffff"
     bordercolor="#666666"
     borderopacity="1"
     objecttolerance="10"
     gridtolerance="10"
     guidetolerance="10"
     inkscape:pageopacity="0"
     inkscape:pageshadow="2"
     inkscape:window-width="640"
     inkscape:window-height="480"
     id="namedview14"
     showgrid="false"
     inkscape:zoom="1.4511857"
     inkscape:cx="41.549997"
     inkscape:cy="41.600002"
     inkscape:window-x="0"
     inkscape:window-y="0"
     inkscape:window-maximized="0"
     inkscape:current-layer="Layer_1" /><style
     type="text/css"
     id="style2">
	.st0{fill:#FEE700;}
	.st1{fill:#010101;}
</style><g
     id="Layer_1_3_"
     transform="translate(-47.9,-57.9)"><g
       id="g10"><g
         id="g6"><path
           class="st0"
           d="m 89.3,140.7 c -22.9,0 -41.4,-18.5 -41.4,-41.4 0,-22.9 18.5,-41.4 41.4,-41.4 22.9,0 41.4,18.5 41.4,41.4 0.2,22.8 -18.5,41.4 -41.4,41.4 z"
           id="path4"
           inkscape:connector-curvature="0"
           style="fill:#fee700" /></g><path
         class="st1"
         d="m 83.7,120.8 h 9.2 V 97.9 h 6.4 l 0.7,-7.7 h -7.1 c 0,0 0,-2.8 0,-4.3 0,-1.9 0.4,-2.4 2.1,-2.4 1.3,0 4.9,0 4.9,0 v -7.9 c 0,0 -5.2,0 -6.4,0 -6.7,0 -9.9,3 -9.9,8.8 0,5.1 0,6.2 0,6.2 h -4.7 v 7.7 h 4.7 v 22.5 z"
         id="path8"
         inkscape:connector-curvature="0"
         style="fill:#010101" /></g></g></svg>